<svg width="102" height="105" viewBox="0 0 102 105" fill="none" xmlns="http://www.w3.org/2000/svg">
<path d="M101 52.3882C101 44.4607 99.2413 36.6391 95.8595 29.5266C92.4777 22.414 87.5632 16.2007 81.4949 11.3657L73.8712 21.6214C78.4224 25.2476 82.1083 29.9076 84.6447 35.242C87.181 40.5764 88.5001 46.4426 88.5001 52.3882H101Z" fill="#18B588" fill-opacity="0.8" stroke="white"/>
<path d="M81.4949 11.3658C72.2926 4.0337 60.9124 0.246199 49.3071 0.653234C37.7018 1.06027 26.5952 5.63646 17.8934 13.5965L26.17 23.2944C32.6964 17.3244 41.0263 13.8923 49.7303 13.587C58.4343 13.2817 66.9695 16.1223 73.8711 21.6214L81.4949 11.3658Z" fill="#18B588" stroke="white"/>
<path d="M17.8934 13.5964C12.1749 18.8274 7.68877 25.3441 4.77865 32.6473C1.86854 39.9505 0.611673 47.8463 1.10431 55.7301C1.59695 63.6138 3.82603 71.2762 7.6208 78.1303C11.4156 84.9844 16.6753 90.8484 22.9972 95.2729L29.9979 84.5518C25.2565 81.2333 21.3117 76.8354 18.4656 71.6948C15.6195 66.5542 13.9477 60.8074 13.5782 54.8946C13.2087 48.9818 14.1514 43.0599 16.334 37.5825C18.5166 32.1051 21.8812 27.2176 26.17 23.2944L17.8934 13.5964Z" fill="#18B588" fill-opacity="0.2" stroke="white"/>
<path d="M22.9972 95.2731C28.5695 99.173 34.8445 101.869 41.4468 103.199L43.8351 90.4967C38.8834 89.4988 34.1771 87.4769 29.9979 84.5519L22.9972 95.2731Z" fill="#18B588" fill-opacity="0.4" stroke="white"/>
<path d="M41.4468 103.199C48.6868 104.658 56.1489 104.441 63.2982 102.563C70.4475 100.684 77.1069 97.1919 82.7989 92.3354C88.4909 87.4789 93.0746 81.3788 96.2214 74.4724C99.3681 67.566 101 60.0244 101 52.3882H88.5C88.5 58.1153 87.2761 63.7716 84.9161 68.9514C82.556 74.1312 79.1182 78.7062 74.8492 82.3486C70.5802 85.9909 65.5856 88.6103 60.2237 90.019C54.8617 91.4277 49.2651 91.5907 43.8351 90.4965L41.4468 103.199Z" fill="#18B588" fill-opacity="0.6" stroke="white"/>
</svg>
